<?xml version="1.0" standalone="no"?>
<!DOCTYPE svg PUBLIC "-//W3C//DTD SVG 20010904//EN"
 "http://www.w3.org/TR/2001/REC-SVG-20010904/DTD/svg10.dtd">
<svg version="1.0" xmlns="http://www.w3.org/2000/svg"
 width="512.000000pt" height="512.000000pt" viewBox="0 0 512.000000 512.000000"
 preserveAspectRatio="xMidYMid meet">
<metadata>
Created by potrace 1.16, written by Peter Selinger 2001-2019
</metadata>
<g transform="translate(0.000000,512.000000) scale(0.100000,-0.100000)"
fill="#000000" stroke="none">
<path d="M390 4466 c-179 -50 -329 -201 -376 -381 -20 -74 -20 -2976 0 -3050
48 -182 199 -333 381 -381 41 -11 430 -14 2168 -14 l2118 0 76 25 c174 59 303
195 349 370 20 74 20 2976 0 3050 -48 182 -199 333 -381 381 -71 19 -4266 19
-4335 0z m4307 -228 c77 -29 152 -104 181 -181 l22 -58 0 -1439 0 -1439 -22
-58 c-29 -77 -104 -152 -181 -181 l-58 -22 -2079 0 -2079 0 -58 22 c-77 29
-152 104 -181 181 l-22 58 0 1439 0 1439 22 58 c28 76 104 152 178 181 l55 21
2082 0 2082 1 58 -22z"/>
<path d="M1466 3614 c-88 -21 -174 -71 -246 -144 -77 -77 -113 -140 -140 -246
-34 -133 -23 -239 40 -370 30 -63 54 -95 107 -145 116 -108 217 -149 373 -149
160 0 262 42 378 156 169 168 208 405 100 624 -39 81 -140 184 -224 228 -114
59 -261 77 -388 46z m259 -233 c108 -48 185 -165 185 -281 0 -36 -7 -87 -16
-113 -21 -61 -93 -141 -158 -175 -44 -23 -63 -27 -136 -27 -73 0 -92 4 -136
27 -65 34 -137 114 -158 175 -60 175 44 368 221 413 52 13 146 4 198 -19z"/>
<path d="M3034 3401 c-61 -37 -69 -119 -17 -173 l27 -28 689 0 689 0 29 29
c24 25 29 38 29 78 0 42 -5 54 -31 79 l-30 29 -677 3 c-649 2 -678 1 -708 -17z"/>
<path d="M3016 2532 c-34 -37 -43 -89 -22 -130 34 -65 6 -63 750 -60 l675 3
30 29 c26 25 31 37 31 79 0 40 -5 53 -29 78 l-29 29 -689 0 -689 0 -28 -28z"/>
<path d="M1042 2336 c-180 -44 -332 -192 -386 -375 -19 -64 -23 -389 -6 -422
24 -44 114 -64 158 -33 44 30 52 64 52 212 0 162 12 214 68 287 27 36 57 60
106 85 l69 35 497 0 497 0 69 -35 c49 -25 79 -49 106 -85 56 -73 68 -125 68
-287 0 -148 8 -182 52 -212 44 -31 134 -11 158 33 17 33 13 358 -6 422 -55
188 -217 340 -402 378 -79 16 -1030 13 -1100 -3z"/>
<path d="M3020 1681 c-16 -16 -32 -40 -36 -55 -9 -38 3 -74 36 -107 l28 -29
677 0 c583 0 680 2 705 15 37 19 50 43 50 95 0 52 -13 76 -50 95 -25 13 -122
15 -705 15 l-677 0 -28 -29z"/>
</g>
</svg>
