<?xml version="1.0" standalone="no"?>
<!DOCTYPE svg PUBLIC "-//W3C//DTD SVG 20010904//EN"
 "http://www.w3.org/TR/2001/REC-SVG-20010904/DTD/svg10.dtd">
<svg version="1.0" xmlns="http://www.w3.org/2000/svg"
 width="512.000000pt" height="512.000000pt" viewBox="0 0 512.000000 512.000000"
 preserveAspectRatio="xMidYMid meet">

<g transform="translate(0.000000,512.000000) scale(0.100000,-0.100000)"
fill="#000000" stroke="none">
<path d="M2290 5110 c-585 -57 -1161 -322 -1560 -720 -478 -477 -754 -1196
-727 -1890 38 -923 535 -1731 1342 -2179 739 -410 1647 -426 2415 -41 479 240
843 606 1086 1091 399 797 357 1758 -112 2517 -413 667 -1102 1110 -1884 1212
-115 15 -443 21 -560 10z m620 -155 c519 -80 987 -315 1354 -679 374 -372 608
-841 693 -1386 24 -158 24 -499 0 -660 -100 -658 -431 -1217 -952 -1607 -335
-251 -731 -409 -1165 -464 -122 -16 -438 -16 -560 0 -545 70 -1016 294 -1399
666 -397 386 -632 845 -717 1405 -22 142 -25 491 -6 625 81 565 310 1033 693
1416 187 187 380 326 624 450 277 139 551 217 890 253 87 9 444 -3 545 -19z"/>
<path d="M1535 4068 c-55 -20 -109 -64 -218 -178 -172 -177 -245 -309 -282
-505 -41 -213 12 -442 176 -768 323 -641 968 -1236 1601 -1476 250 -94 396
-122 547 -102 235 30 407 125 609 335 100 104 125 154 126 246 0 117 -11 133
-327 447 -309 307 -324 318 -437 318 -104 0 -138 -21 -326 -207 -104 -102
-179 -168 -191 -168 -78 0 -487 368 -688 620 -105 131 -117 151 -109 177 4 10
80 92 170 183 186 189 208 223 208 331 0 115 -17 138 -326 445 -171 169 -288
278 -313 289 -47 23 -175 30 -220 13z m153 -172 c15 -8 140 -128 278 -268 265
-267 277 -283 253 -346 -6 -15 -84 -101 -174 -192 -89 -91 -171 -181 -181
-200 -28 -53 -26 -154 5 -205 138 -234 674 -755 855 -830 52 -22 138 -19 189
6 25 13 105 86 202 185 l161 164 49 0 50 0 272 -273 273 -272 0 -47 c0 -41 -5
-52 -48 -99 -88 -99 -212 -199 -296 -239 -118 -57 -197 -73 -336 -67 -104 4
-129 9 -258 52 -261 87 -557 253 -812 455 -132 105 -371 343 -478 477 -208
259 -364 534 -457 807 -65 191 -43 414 57 584 18 32 92 117 163 190 122 123
133 132 168 132 21 0 50 -6 65 -14z"/>
</g>
</svg>
