<?xml version="1.0" standalone="no"?>
<!DOCTYPE svg PUBLIC "-//W3C//DTD SVG 20010904//EN"
 "http://www.w3.org/TR/2001/REC-SVG-20010904/DTD/svg10.dtd">
<svg version="1.0" xmlns="http://www.w3.org/2000/svg"
 width="512.000000pt" height="512.000000pt" viewBox="0 0 512.000000 512.000000"
 preserveAspectRatio="xMidYMid meet">
<metadata>
Created by potrace 1.16, written by Peter Selinger 2001-2019
</metadata>
<g transform="translate(0.000000,512.000000) scale(0.100000,-0.100000)"
fill="#000000" stroke="none">
<path d="M989 4686 c-55 -19 -94 -52 -115 -93 -18 -36 -19 -75 -22 -638 l-2
-600 22 -44 c13 -25 40 -59 61 -75 l39 -31 614 -3 c589 -2 615 -2 651 17 76
38 113 103 113 196 0 88 -36 156 -105 193 -26 15 -79 18 -375 22 l-345 5 92
75 c222 182 462 292 728 335 117 19 339 19 449 0 525 -92 1009 -500 1171 -989
65 -196 94 -426 76 -594 -53 -465 -299 -881 -671 -1132 -335 -226 -727 -298
-1139 -209 -350 76 -661 278 -879 570 -107 144 -129 159 -230 159 -68 0 -124
-24 -169 -71 -40 -43 -53 -77 -53 -142 0 -72 31 -131 133 -257 294 -366 712
-620 1167 -712 102 -20 143 -23 365 -23 271 0 348 9 510 62 658 212 1165 735
1331 1371 34 134 43 197 54 379 20 359 -35 646 -184 948 -261 533 -710 900
-1271 1039 -262 65 -639 63 -906 -4 -270 -69 -542 -207 -746 -379 l-73 -61 0
275 c0 256 -1 279 -20 315 -46 89 -168 133 -271 96z"/>
</g>
</svg>
